<svg xmlns="http://www.w3.org/2000/svg" xmlns:xlink="http://www.w3.org/1999/xlink" width="431.549" height="234.618" viewBox="0 0 431.549 234.618"><defs><linearGradient id="a" y1="0.5" x2="1" y2="0.5" gradientUnits="objectBoundingBox"><stop offset="0" stop-color="#e6173c"/><stop offset="0.057" stop-color="#ea3332"/><stop offset="0.116" stop-color="#ed492a"/><stop offset="0.174" stop-color="#ee5626"/><stop offset="0.227" stop-color="#ef5a24"/><stop offset="0.281" stop-color="#f06126"/><stop offset="0.36" stop-color="#f2752b"/><stop offset="0.453" stop-color="#f69434"/><stop offset="0.517" stop-color="#f9ae3b"/><stop offset="0.75" stop-color="#3496c2"/><stop offset="1" stop-color="#522783"/></linearGradient></defs><path d="M424.12,408.259h16.659V642.423H424.12Zm157.071,36.505V408.259H482.824c-3.57,0-27.567-2.226-27.567,57.427V580.542c0,4.452-1.19,62.325,25.385,62.325H582.183V607.253H480.642c-2.38,0-9.321-3.561-9.321-29.382V472.81c0-9.794-1.388-27.6,11.3-27.6S581.191,444.764,581.191,444.764Zm135.653,28.494c0,61.435-16.262,71.228-24.592,71.228H612.526v97.936H596.264V408.259h91.228C697.012,408.259,716.844,411.82,716.844,473.258Zm-16.461,3.116c0-30.273-.4-31.162-18.246-31.162H612.328v63.214h78.536c5.156,0,9.519-1.783,9.519-32.055ZM731.52,584.55c0,46.3,15.469,57.874,23.4,57.874H855.669V606.809H756.508c-7.536,0-9.123-13.356-9.123-21.368V409.149H731.52Z" transform="translate(-424.12 -408.248)" fill="url(#a)"/></svg>